#!OML:ASF E:/inclinewalkrobotboard/Project1/Captureday1/Session1/subject1.ASF
:FULLY-SPECIFIED
:DEGREES
138
root 0 0 0 -0.9996518260582299 -2.758631096984546 -2.470498185029447
lowerback 9.39378119310598 0.3519958526657383 0.6674060315069705
upperback -0.02435123127602168 0.6840551724560949 1.7379006597059736
thorax -5.190708955202358 0.3554715089257326 1.3567540375662435
lowerneck -16.469986228809454 -2.968232989068941 -1.9362341741326072
upperneck 19.877856436982288 -3.8032845735552487 0.6941776166966558
head 9.049488727488702 -1.8456318584638827 0.07951653585983298
rclavicle -6.583380729971963E-16 -4.794399930290392E-16
rhumerus -23.692429012537403 -18.875681979736207 -74.88788573286175
rradius 27.039943494113306
rwrist 6.505819686028957
rhand -15.78592834704296 20.948667253559545
rfingers 7.125020000000033
rthumb 10.384866735863389 -8.526881919700257
lclavicle -6.584487026683524E-16 -3.187679271321952E-16
lhumerus -29.66254343965663 1.431048080520413 78.03755873705254
lradius 28.74600645073142
lwrist 3.1542341193454337
lhand -23.826283728568686 23.32376208343218
lfingers 7.12502000000004
lthumb 2.590597738819646 53.00258937418366
rfemur -2.2354039399607615 -8.463261741397375 13.682861988909067
rtibia 39.00226240735486
rfoot -9.022622643275206 -8.235419024994513
rtoes 6.41217458208002
lfemur -14.16443280900338 -0.5339788806465133 -20.76862252082519
ltibia 34.300143405025665
lfoot -9.151998175047897 -0.46707042747934224
ltoes -2.067629820849703
139
root 0 0 0 -0.971434254597451 -2.7710480146093097 -2.476248809575641
lowerback 9.379002809013752 0.35228348417746536 0.6648713907447821
upperback -0.0341703820829764 0.6842822200441839 1.7387820487023156
thorax -5.192858003159962 0.3556872299446933 1.3592761389853245
lowerneck -16.463768877777426 -2.965448099441991 -1.9345324550698062
upperneck 19.882538082603496 -3.800199916370361 0.6969992193100172
head 9.050378649243125 -1.8440902622517052 0.08040150425845394
rclavicle -6.576987003341367E-16 -4.799500028329991E-16
rhumerus -23.641152883536925 -18.880843034122165 -74.85596241907584
rradius 27.041221500295162
rwrist 6.52940364433325
rhand -15.764148417211874 20.93075080386963
rfingers 7.125020000000032
rthumb 10.405651489870651 -8.542118945750971
lclavicle -6.573768874469326E-16 -3.20164733224424E-16
lhumerus -29.63039823050513 1.4382652361110813 77.98673441879319
lradius 28.754306459053918
lwrist 3.1301319879143232
lhand -23.79051558604876 23.32485284039679
lfingers 7.125020000000039
lthumb 2.6253334040103304 52.9996502325198
rfemur -2.1101408919825104 -8.615321827396286 13.534644816756298
rtibia 39.00896719950405
rfoot -9.03939483814959 -8.255040080828621
rtoes 6.441022265396388
lfemur -14.22570148598129 -0.5162689222955361 -20.78250284241306
ltibia 34.32163981732272
lfoot -9.172830499397637 -0.4373347788358899
ltoes -2.044166052381785
140
root 0 0 0 -1.1497873671187548 -2.6806427451886563 -2.4343700659178635
lowerback 9.46981921166747 0.34859583687206386 0.6788400762740192
upperback 0.027099640022404614 0.6809575798267686 1.7348711123874456
thorax -5.178399625008803 0.3533167092558142 1.3455966486868625
lowerneck -16.500875798389398 -2.985399113388313 -1.9470806222700818
upperneck 19.857023573720376 -3.8216210576680547 0.6781806421012386
head 9.046336319091555 -1.8557369082678639 0.07453580149452277
rclavicle -6.596160618801648E-16 -4.80477567589847E-16
rhumerus -23.88679221784708 -18.855921597166677 -75.01346709811833
rradius 27.036249739252952
rwrist 6.4113872519541
rhand -15.87117810620754 21.018361854273536
rfingers 7.125020000000035
rthumb 10.302627092919714 -8.466978291983132
lclavicle -6.62047081843701E-16 -3.1342153949766185E-16
lhumerus -29.76715453669594 1.4089132510651794 78.20345874196445
lradius 28.71835511825834
lwrist 3.230406714094089
lhand -23.94517383232187 23.320781018664963
lfingers 7.125020000000042
lthumb 2.475768083159693 53.01269343599486
rfemur -2.6744807741165317 -7.930373949933369 14.199974914227155
rtibia 38.98285123735067
rfoot -8.963354321446424 -8.165980518133484
rtoes 6.31160982039318
lfemur -13.950514406438991 -0.5954377869747969 -20.721119000207047
ltibia 34.22352259666484
lfoot -9.08159823922158 -0.5709858842473601
ltoes -2.150924387546741
141
root 0 0 0 -1.090098733166073 -2.709518469425209 -2.4481791002145057
lowerback 9.43897157737656 0.349606027205269 0.6739246683510816
upperback 0.006312331654344305 0.6818462055782961 1.7362439546862407
thorax -5.183172794524266 0.35399318172872024 1.350490824580012
lowerneck -16.4881325134988 -2.979030519105571 -1.9430593479165355
upperneck 19.866362386110037 -3.815039787889845 0.6843633352633023
head 9.047862090223196 -1.8521563347399348 0.07643099273939336
rclavicle -6.600091901824523E-16 -4.805983252287298E-16
rhumerus -23.845179888819636 -18.861047687302598 -74.98138801169522
rradius 27.037322309988323
rwrist 6.433434911308954
rhand -15.851799304919068 21.002618325889674
rfingers 7.125020000000034
rthumb 10.321972115722573 -8.481068521892881
lclavicle -6.609300291053306E-16 -3.155241512069486E-16
lhumerus -29.73798670285761 1.4142025899399444 78.15722040328077
lradius 28.726825400067135
lwrist 3.211018402605495
lhand -23.910931467718186 23.32102945366212
lfingers 7.125020000000041
lthumb 2.5085231197006728 53.00940924914655
rfemur -2.5232354232244774 -8.114202187961638 14.024355888882198
rtibia 38.98618340173139
rfoot -8.984810786044605 -8.1903328694266
rtoes 6.345464930676577
lfemur -13.998120982400678 -0.5825034446795989 -20.73156315953375
ltibia 34.23941544349306
lfoot -9.097214239710738 -0.547304696004943
ltoes -2.1317855762775206
142
root 0 0 0 -1.0388366996867333 -2.7380302639673033 -2.4608315430564396
lowerback 9.413474402302146 0.35106131131582274 0.6702306323527769
upperback -0.010967605016876547 0.6831473582713833 1.7370943753139954
thorax -5.187496322663666 0.35488326475195914 1.3539937079379527
lowerneck -16.477984676045754 -2.9727558991771574 -1.9390921741383607
upperneck 19.872487057631187 -3.8081808436762454 0.6900234163721288
head 9.048636703574655 -1.8483008637940488 0.07822637058492754
rclavicle -6.592566248353573E-16 -4.786920321506655E-16
rhumerus -23.750502157380943 -18.86974874073743 -74.92432048196605
rradius 27.038428205810682
rwrist 6.479524575692881
rhand -15.810536859043356 20.96892323280379
rfingers 7.125020000000033
rthumb 10.361371731223839 -8.509651283503032
lclavicle -6.593476007477792E-16 -3.1746004814703774E-16
lhumerus -29.6914509555018 1.4245866114839565 78.08316333678529
lradius 28.738550729743945
lwrist 3.17577918839684
lhand -23.858204875760734 23.322730350680484
lfingers 7.12502000000004
lthumb 2.559539612833529 53.005173228412346
rfemur -2.3555741714946663 -8.317831953163846 13.824452305202769
rtibia 38.996460985918695
rfoot -9.006417324002646 -8.216655564543208
rtoes 6.3848772266264255
lfemur -14.100564104129447 -0.5523565532389547 -20.75408649971487
ltibia 34.27821257183221
lfoot -9.129967088816956 -0.49814791114253865
ltoes -2.092134611200848
143
root 0 0 0 -0.9962747843040418 -2.758527427875997 -2.470331937845777
lowerback 9.39160605691896 0.35176470899880297 0.666715737526832
upperback -0.025662118584499183 0.6837625697499745 1.7382147246166286
thorax -5.190889022570882 0.3553410415429068 1.3574439579627327
lowerneck -16.468921529801428 -2.9681949082759487 -1.936271738398354
upperneck 19.878953340155142 -3.8032111979500494 0.694429943948156
head 9.04977015971804 -1.845687487717934 0.0796026833663187
rclavicle -6.582186948314594E-16 -4.795756290012508E-16
rhumerus -23.682917065874726 -18.876616534887745 -74.88219461231556
rradius 27.040179980730287
rwrist 6.510179409128259
rhand -15.782042406424996 20.94545085722799
rfingers 7.125020000000033
rthumb 10.38856425861676 -8.529611445489275
lclavicle -6.581079052640837E-16 -3.191921778370272E-16
lhumerus -29.65220904194002 1.4332968067397847 78.02144370900882
lradius 28.748708709619823
lwrist 3.146654967714861
lhand -23.814880478026478 23.324071290138882
lfingers 7.125020000000039
lthumb 2.6016760517228015 53.00161260243236
rfemur -2.1946652745066757 -8.512593150049511 13.634908906887787
rtibia 39.00384106616057
rfoot -9.028266961344203 -8.241788859043943
rtoes 6.421417330246882
lfemur -14.178607748603689 -0.5298631754420953 -20.771842588481903
ltibia 34.30523766037089
lfoot -9.156753917026597 -0.4601972857717769
ltoes -2.0622428703396576
144
root 0 0 0 -1.1618623199875735 -2.6753549106619765 -2.431834788102508
lowerback 9.47613609460032 0.3484672820826372 0.6798620296648337
upperback 0.031296378581918916 0.6808189162501725 1.7344974950452112
thorax -5.1775161054661964 0.3532098848190044 1.3445558838688108
lowerneck -16.503520425203796 -2.9865599866767996 -1.9478129951892078
upperneck 19.85498845903615 -3.822930247673079 0.6770083821554249
head 9.0459335039872 -1.8563765915777908 0.07417107811621848
rclavicle -6.598998739495098E-16 -4.802049320038856E-16
rhumerus -23.910737059822722 -18.85348465891702 -75.02851594489414
rradius 27.035626170861637
rwrist 6.400403423954362
rhand -15.881390855884984 21.026757218405848
rfingers 7.125020000000035
rthumb 10.292872489895997 -8.459834421981759
lclavicle -6.62561394348816E-16 -3.1277720198915186E-16
lhumerus -29.78187430227699 1.4055973791997287 78.22680737986234
lradius 28.714547081035242
lwrist 3.241490393897731
lhand -23.961616256643715 23.320288033973306
lfingers 7.125020000000042
lthumb 2.4597998424264738 53.01405321098786
rfemur -2.7278585554594628 -7.865113853713922 14.263731220908255
rtibia 38.97894570067078
rfoot -8.956437293548188 -8.157606954638004
rtoes 6.298982716594118
lfemur -13.922791252891905 -0.6034401297527427 -20.71482636029503
ltibia 34.21391882896992
lfoot -9.072047121755325 -0.5844665697665263
ltoes -2.161588769317655
